<svg xmlns="http://www.w3.org/2000/svg" xmlns:xlink="http://www.w3.org/1999/xlink" width="500" zoomAndPan="magnify" viewBox="0 0 375 374.999991" height="500" preserveAspectRatio="xMidYMid meet" version="1.0"><defs><g/><clipPath id="6e3662179a"><path d="M 0.238281 26 L 302.160156 26 L 302.160156 169.761719 L 0.238281 169.761719 Z M 0.238281 26 " clip-rule="nonzero"/></clipPath><clipPath id="dfd89cee05"><rect x="0" width="303" y="0" height="144"/></clipPath><clipPath id="7987ecf183"><path d="M 239 0.078125 L 270 0.078125 L 270 93 L 239 93 Z M 239 0.078125 " clip-rule="nonzero"/></clipPath><clipPath id="b928fac023"><rect x="0" width="31" y="0" height="93"/></clipPath><clipPath id="2af7876265"><rect x="0" width="303" y="0" height="170"/></clipPath></defs><g transform="matrix(1, 0, 0, 1, 30, 100)"><g clip-path="url(#2af7876265)"><g clip-path="url(#6e3662179a)"><g transform="matrix(1, 0, 0, 1, 0.000000000000003553, 26)"><g clip-path="url(#dfd89cee05)"><g fill="#ffffff" fill-opacity="1"><g transform="translate(0.729815, 96.540505)"><g><path d="M 57.0625 -45.375 L 52.8125 -43.734375 L 49.09375 -48.40625 L 43.875 -51.4375 L 40.296875 -50.75 L 37.8125 -50.875 L 34.796875 -49.5 L 31.21875 -48.125 C 31.21875 -48.125 30.78125 -47.570312 29.90625 -46.46875 C 29.039062 -45.375 28.035156 -43.84375 26.890625 -41.875 C 25.742188 -39.90625 24.734375 -37.660156 23.859375 -35.140625 C 22.984375 -32.617188 22.546875 -29.9375 22.546875 -27.09375 C 22.546875 -24.4375 23.234375 -22.210938 24.609375 -20.421875 C 25.984375 -18.628906 27.335938 -17.320312 28.671875 -16.5 C 30.003906 -15.675781 30.671875 -15.265625 30.671875 -15.265625 L 50.46875 -16.234375 C 50.46875 -16.234375 50.488281 -16.234375 50.53125 -16.234375 C 50.582031 -16.234375 50.609375 -16.234375 50.609375 -16.234375 C 51.703125 -16.234375 52.773438 -15.726562 53.828125 -14.71875 C 54.890625 -13.707031 55.421875 -12.648438 55.421875 -11.546875 C 55.421875 -10.628906 54.800781 -9.828125 53.5625 -9.140625 C 52.320312 -8.453125 50.785156 -7.742188 48.953125 -7.015625 C 47.941406 -6.554688 46.910156 -6.097656 45.859375 -5.640625 C 44.804688 -5.179688 43.820312 -4.953125 42.90625 -4.953125 C 42.445312 -4.953125 41.617188 -5.066406 40.421875 -5.296875 C 39.234375 -5.523438 38.132812 -5.753906 37.125 -5.984375 C 36.113281 -6.210938 35.609375 -6.328125 35.609375 -6.328125 L 30.53125 -6.46875 C 28.238281 -6.550781 26.519531 -7.117188 25.375 -8.171875 C 24.226562 -9.234375 22.691406 -10.585938 20.765625 -12.234375 L 15.953125 -16.359375 L 15.671875 -19.671875 L 14.171875 -25.859375 L 14.71875 -29.15625 L 14.859375 -32.59375 L 18.984375 -46.203125 C 19.160156 -46.941406 19.753906 -47.859375 20.765625 -48.953125 C 21.773438 -50.054688 22.875 -51.132812 24.0625 -52.1875 C 25.257812 -53.238281 26.289062 -54.109375 27.15625 -54.796875 C 28.03125 -55.484375 28.46875 -55.828125 28.46875 -55.828125 L 32.171875 -58.4375 L 34.921875 -58.4375 C 34.921875 -58.4375 35.425781 -58.550781 36.4375 -58.78125 C 37.445312 -59.007812 38.363281 -59.125 39.1875 -59.125 C 42.125 -59.125 44.941406 -58.664062 47.640625 -57.75 C 50.347656 -56.832031 52.59375 -55.6875 54.375 -54.3125 C 56.164062 -52.9375 57.0625 -51.609375 57.0625 -50.328125 Z M 57.0625 -45.375 "/></g></g></g><g fill="#ffffff" fill-opacity="1"><g transform="translate(48.575626, 96.540505)"><g><path d="M 66.421875 -6.59375 C 66.421875 -6.507812 66.421875 -6.46875 66.421875 -6.46875 C 66.421875 -6.46875 66.421875 -6.421875 66.421875 -6.328125 C 66.421875 -4.035156 65.773438 -1.789062 64.484375 0.40625 C 63.203125 2.613281 61.601562 3.71875 59.6875 3.71875 C 58.945312 3.71875 58.234375 3.347656 57.546875 2.609375 C 56.859375 1.878906 56.515625 1.101562 56.515625 0.28125 C 56.515625 -1.1875 56.628906 -2.953125 56.859375 -5.015625 C 57.085938 -7.078125 57.316406 -9.09375 57.546875 -11.0625 C 57.773438 -13.039062 58.003906 -14.671875 58.234375 -15.953125 C 58.460938 -17.234375 58.578125 -17.875 58.578125 -17.875 L 57.75 -22.140625 L 57.484375 -27.5 L 56.9375 -30.796875 C 56.382812 -33.460938 54.820312 -35.800781 52.25 -37.8125 C 49.6875 -39.832031 46.9375 -40.84375 44 -40.84375 C 43.632812 -40.84375 43.222656 -40.863281 42.765625 -40.90625 C 42.304688 -40.957031 41.800781 -40.984375 41.25 -40.984375 C 40.15625 -40.984375 38.941406 -40.84375 37.609375 -40.5625 C 36.273438 -40.289062 35.109375 -39.695312 34.109375 -38.78125 C 32.085938 -36.945312 30.4375 -35.15625 29.15625 -33.40625 C 27.875 -31.664062 27.234375 -30.796875 27.234375 -30.796875 L 27.234375 -26.40625 L 25.296875 -18.015625 L 24.203125 -0.828125 C 24.109375 0.0859375 23.765625 0.910156 23.171875 1.640625 C 22.578125 2.378906 21.773438 2.75 20.765625 2.75 C 19.296875 2.75 18.285156 2.3125 17.734375 1.4375 C 17.191406 0.570312 16.921875 -0.957031 16.921875 -3.15625 L 16.921875 -8.53125 L 17.609375 -11.28125 L 17.46875 -18.984375 L 18.15625 -25.578125 L 17.609375 -28.609375 L 18.703125 -52.25 C 18.890625 -54.363281 19.023438 -56.453125 19.109375 -58.515625 C 19.203125 -60.578125 19.25 -62.707031 19.25 -64.90625 C 19.25 -67.007812 19.109375 -69.253906 18.828125 -71.640625 C 18.554688 -74.023438 18.421875 -76.640625 18.421875 -79.484375 C 18.421875 -79.753906 18.421875 -80.050781 18.421875 -80.375 C 18.421875 -80.695312 18.421875 -80.992188 18.421875 -81.265625 C 18.421875 -83.097656 18.515625 -84.929688 18.703125 -86.765625 C 18.890625 -88.597656 19.300781 -90.132812 19.9375 -91.375 C 20.582031 -92.613281 21.640625 -93.234375 23.109375 -93.234375 C 24.109375 -93.234375 25.019531 -92.59375 25.84375 -91.3125 C 26.675781 -90.03125 27.140625 -88.882812 27.234375 -87.875 L 27.5 -84.984375 L 26.8125 -82.234375 L 27.5 -78.25 L 27.359375 -74.8125 C 27.359375 -74.8125 27.289062 -73.984375 27.15625 -72.328125 C 27.019531 -70.679688 26.859375 -68.640625 26.671875 -66.203125 C 26.492188 -63.773438 26.40625 -61.414062 26.40625 -59.125 C 26.40625 -57.382812 26.472656 -55.484375 26.609375 -53.421875 C 26.742188 -51.359375 26.8125 -50.328125 26.8125 -50.328125 L 27.5 -46.484375 L 31.484375 -46.0625 L 35.890625 -48.953125 L 39.875 -50.0625 L 45.109375 -51.703125 L 48.8125 -50.328125 C 48.8125 -50.328125 49.59375 -50.144531 51.15625 -49.78125 C 52.71875 -49.414062 54.53125 -48.40625 56.59375 -46.75 C 58.65625 -45.101562 60.414062 -42.304688 61.875 -38.359375 C 62.976562 -35.242188 63.894531 -31.53125 64.625 -27.21875 C 65.363281 -22.914062 65.867188 -18.425781 66.140625 -13.75 Z M 66.421875 -6.59375 "/></g></g></g><g fill="#ffffff" fill-opacity="1"><g transform="translate(105.771317, 96.540505)"><g><path d="M 30.53125 -56.65625 L 29.421875 -49.5 L 30.25 -33.6875 L 29.5625 -30.53125 C 29.5625 -30.53125 29.332031 -29.566406 28.875 -27.640625 C 28.414062 -25.710938 28.1875 -23.925781 28.1875 -22.28125 C 28.1875 -21.082031 28.273438 -19.773438 28.453125 -18.359375 C 28.640625 -16.941406 28.847656 -15.703125 29.078125 -14.640625 C 29.304688 -13.585938 29.421875 -13.0625 29.421875 -13.0625 L 28.734375 -10.171875 C 28.367188 -8.796875 27.75 -7.582031 26.875 -6.53125 C 26.007812 -5.476562 25.023438 -4.953125 23.921875 -4.953125 C 22.546875 -4.953125 21.628906 -5.410156 21.171875 -6.328125 C 20.710938 -7.242188 20.484375 -8.617188 20.484375 -10.453125 C 20.484375 -10.910156 20.617188 -11.6875 20.890625 -12.78125 C 21.171875 -13.882812 21.3125 -14.941406 21.3125 -15.953125 L 20.90625 -24.890625 C 20.90625 -24.890625 20.832031 -25.644531 20.6875 -27.15625 C 20.550781 -28.664062 20.414062 -30.613281 20.28125 -33 C 20.144531 -35.382812 20.078125 -37.816406 20.078125 -40.296875 C 20.078125 -42.585938 20.164062 -44.765625 20.34375 -46.828125 C 20.53125 -48.890625 20.851562 -50.5625 21.3125 -51.84375 L 22.546875 -55.5625 L 23.921875 -59.546875 C 24.203125 -60.273438 24.707031 -60.9375 25.4375 -61.53125 C 26.175781 -62.132812 26.863281 -62.4375 27.5 -62.4375 C 28.601562 -62.4375 29.269531 -61.835938 29.5 -60.640625 C 29.726562 -59.453125 29.84375 -58.859375 29.84375 -58.859375 Z M 29.421875 -88.421875 C 29.421875 -85.859375 28.800781 -83.703125 27.5625 -81.953125 C 26.332031 -80.210938 25.03125 -79.296875 23.65625 -79.203125 C 23.5625 -79.203125 23.46875 -79.203125 23.375 -79.203125 C 23.28125 -79.203125 23.144531 -79.203125 22.96875 -79.203125 C 22.050781 -79.203125 21.203125 -79.316406 20.421875 -79.546875 C 19.640625 -79.773438 19.113281 -80.164062 18.84375 -80.71875 L 17.1875 -83.46875 L 17.875 -87.328125 L 21.171875 -90.625 L 22.96875 -93.375 L 25.859375 -93.09375 C 27.046875 -92.914062 27.9375 -92.484375 28.53125 -91.796875 C 29.125 -91.109375 29.421875 -89.984375 29.421875 -88.421875 Z M 29.421875 -88.421875 "/></g></g></g><g fill="#ffffff" fill-opacity="1"><g transform="translate(132.304923, 96.540505)"><g><path d="M 30.53125 -56.65625 L 29.421875 -49.5 L 30.25 -33.6875 L 29.5625 -30.53125 C 29.5625 -30.53125 29.332031 -29.566406 28.875 -27.640625 C 28.414062 -25.710938 28.1875 -23.925781 28.1875 -22.28125 C 28.1875 -21.082031 28.273438 -19.773438 28.453125 -18.359375 C 28.640625 -16.941406 28.847656 -15.703125 29.078125 -14.640625 C 29.304688 -13.585938 29.421875 -13.0625 29.421875 -13.0625 L 28.734375 -10.171875 C 28.367188 -8.796875 27.75 -7.582031 26.875 -6.53125 C 26.007812 -5.476562 25.023438 -4.953125 23.921875 -4.953125 C 22.546875 -4.953125 21.628906 -5.410156 21.171875 -6.328125 C 20.710938 -7.242188 20.484375 -8.617188 20.484375 -10.453125 C 20.484375 -10.910156 20.617188 -11.6875 20.890625 -12.78125 C 21.171875 -13.882812 21.3125 -14.941406 21.3125 -15.953125 L 20.90625 -24.890625 C 20.90625 -24.890625 20.832031 -25.644531 20.6875 -27.15625 C 20.550781 -28.664062 20.414062 -30.613281 20.28125 -33 C 20.144531 -35.382812 20.078125 -37.816406 20.078125 -40.296875 C 20.078125 -42.585938 20.164062 -44.765625 20.34375 -46.828125 C 20.53125 -48.890625 20.851562 -50.5625 21.3125 -51.84375 L 22.546875 -55.5625 L 23.921875 -59.546875 C 24.203125 -60.273438 24.707031 -60.9375 25.4375 -61.53125 C 26.175781 -62.132812 26.863281 -62.4375 27.5 -62.4375 C 28.601562 -62.4375 29.269531 -61.835938 29.5 -60.640625 C 29.726562 -59.453125 29.84375 -58.859375 29.84375 -58.859375 Z M 29.421875 -88.421875 C 29.421875 -85.859375 28.800781 -83.703125 27.5625 -81.953125 C 26.332031 -80.210938 25.03125 -79.296875 23.65625 -79.203125 C 23.5625 -79.203125 23.46875 -79.203125 23.375 -79.203125 C 23.28125 -79.203125 23.144531 -79.203125 22.96875 -79.203125 C 22.050781 -79.203125 21.203125 -79.316406 20.421875 -79.546875 C 19.640625 -79.773438 19.113281 -80.164062 18.84375 -80.71875 L 17.1875 -83.46875 L 17.875 -87.328125 L 21.171875 -90.625 L 22.96875 -93.375 L 25.859375 -93.09375 C 27.046875 -92.914062 27.9375 -92.484375 28.53125 -91.796875 C 29.125 -91.109375 29.421875 -89.984375 29.421875 -88.421875 Z M 29.421875 -88.421875 "/></g></g></g><g fill="#ffffff" fill-opacity="1"><g transform="translate(160.213646, 96.540505)"><g><path d="M 71.515625 -54.1875 C 71.515625 -53.632812 71.304688 -52.851562 70.890625 -51.84375 C 70.472656 -50.832031 70.035156 -49.914062 69.578125 -49.09375 C 69.117188 -48.269531 68.890625 -47.859375 68.890625 -47.859375 C 68.890625 -47.859375 68.632812 -47.535156 68.125 -46.890625 C 67.625 -46.253906 66.78125 -45.890625 65.59375 -45.796875 L 54.453125 -44.96875 L 50.0625 -44.28125 L 48.953125 -42.625 L 53.078125 -31.90625 L 58.03125 -23.375 L 59.40625 -19.109375 L 66.6875 -7.421875 C 67.425781 -6.234375 67.910156 -5.085938 68.140625 -3.984375 C 68.367188 -2.890625 68.484375 -1.742188 68.484375 -0.546875 C 68.484375 0.734375 68.140625 2.148438 67.453125 3.703125 C 66.765625 5.265625 65.640625 6.046875 64.078125 6.046875 C 63.160156 6.046875 62.425781 5.242188 61.875 3.640625 C 61.332031 2.035156 60.691406 0.546875 59.953125 -0.828125 L 58.03125 -4.953125 L 56.109375 -7.84375 L 55 -12.09375 L 53.359375 -14.4375 L 48.125 -24.0625 L 44.28125 -29.015625 L 43.1875 -33.140625 C 43.1875 -33.140625 42.910156 -33.570312 42.359375 -34.4375 C 41.804688 -35.3125 41.046875 -36.179688 40.078125 -37.046875 C 39.117188 -37.921875 38 -38.359375 36.71875 -38.359375 C 34.519531 -38.359375 32.476562 -38.015625 30.59375 -37.328125 C 28.71875 -36.640625 27.503906 -34.96875 26.953125 -32.3125 L 25.984375 -26.953125 L 25.03125 -23.109375 L 25.296875 -14.296875 L 24.75 -4.953125 C 24.65625 -2.929688 24.378906 -1.460938 23.921875 -0.546875 C 23.460938 0.367188 22.546875 0.828125 21.171875 0.828125 C 20.347656 0.828125 19.773438 0.53125 19.453125 -0.0625 C 19.140625 -0.664062 18.566406 -1.695312 17.734375 -3.15625 C 17.191406 -3.988281 16.804688 -4.953125 16.578125 -6.046875 C 16.347656 -7.148438 16.234375 -8.207031 16.234375 -9.21875 C 16.234375 -9.675781 16.253906 -10.132812 16.296875 -10.59375 C 16.335938 -11.050781 16.40625 -11.460938 16.5 -11.828125 L 17.609375 -17.328125 L 17.328125 -23.234375 L 18.296875 -33.546875 L 17.875 -37.265625 L 18.5625 -52.8125 L 19.390625 -57.484375 L 18.984375 -89.25 C 18.984375 -91.082031 19.441406 -92.570312 20.359375 -93.71875 C 21.273438 -94.863281 22.507812 -95.4375 24.0625 -95.4375 C 25.34375 -95.4375 26.28125 -94.90625 26.875 -93.84375 C 27.476562 -92.789062 27.78125 -91.992188 27.78125 -91.453125 L 28.1875 -84.984375 L 26.546875 -77.96875 L 26.8125 -68.203125 L 25.984375 -52.9375 C 25.984375 -52.851562 25.984375 -52.738281 25.984375 -52.59375 C 25.984375 -52.457031 25.984375 -52.300781 25.984375 -52.125 C 25.984375 -49.550781 26.945312 -47.945312 28.875 -47.3125 C 28.96875 -47.3125 29.0625 -47.3125 29.15625 -47.3125 C 29.25 -47.3125 29.335938 -47.3125 29.421875 -47.3125 C 30.066406 -47.3125 30.753906 -47.425781 31.484375 -47.65625 C 32.222656 -47.882812 32.59375 -48 32.59375 -48 L 36.296875 -49.09375 L 42.5 -49.5 L 48.8125 -52.25 C 51.476562 -53.445312 54.113281 -54.273438 56.71875 -54.734375 C 59.332031 -55.191406 61.601562 -55.421875 63.53125 -55.421875 C 64.175781 -55.421875 64.796875 -55.421875 65.390625 -55.421875 C 65.984375 -55.421875 66.601562 -55.421875 67.25 -55.421875 C 68.4375 -55.421875 69.441406 -55.347656 70.265625 -55.203125 C 71.097656 -55.066406 71.515625 -54.726562 71.515625 -54.1875 Z M 71.515625 -54.1875 "/></g></g></g><g fill="#ffffff" fill-opacity="1"><g transform="translate(222.221773, 96.540505)"><g><path d="M 63.53125 -31.625 C 63.53125 -28.78125 62.660156 -25.867188 60.921875 -22.890625 C 59.179688 -19.910156 57.003906 -17.160156 54.390625 -14.640625 C 51.773438 -12.117188 49.179688 -10.078125 46.609375 -8.515625 C 44.046875 -6.960938 41.941406 -6.1875 40.296875 -6.1875 C 36.628906 -6.1875 33.28125 -6.664062 30.25 -7.625 C 27.226562 -8.59375 24.84375 -9.554688 23.09375 -10.515625 C 21.351562 -11.484375 20.484375 -11.96875 20.484375 -11.96875 L 16.921875 -13.609375 L 13.609375 -19.671875 C 13.609375 -19.671875 13.332031 -20.332031 12.78125 -21.65625 C 12.238281 -22.988281 11.664062 -24.660156 11.0625 -26.671875 C 10.46875 -28.691406 10.171875 -30.664062 10.171875 -32.59375 C 10.171875 -35.34375 10.835938 -38.253906 12.171875 -41.328125 C 13.503906 -44.398438 15.359375 -47.285156 17.734375 -49.984375 C 20.117188 -52.691406 22.890625 -54.890625 26.046875 -56.578125 C 29.210938 -58.273438 32.585938 -59.125 36.171875 -59.125 C 36.992188 -59.125 38.046875 -58.988281 39.328125 -58.71875 C 40.609375 -58.445312 41.25 -58.3125 41.25 -58.3125 L 44 -56.515625 L 48.6875 -54.3125 L 50.1875 -51.984375 C 50.1875 -51.984375 50.851562 -51.335938 52.1875 -50.046875 C 53.519531 -48.765625 55.078125 -47.113281 56.859375 -45.09375 C 58.648438 -43.082031 60.207031 -40.882812 61.53125 -38.5 C 62.863281 -36.113281 63.53125 -33.820312 63.53125 -31.625 Z M 55.5625 -31.625 L 54.453125 -36.71875 L 51.984375 -39.328125 L 49.78125 -40.421875 L 45.109375 -46.203125 L 39.328125 -47.71875 L 35.75 -49.09375 C 35.75 -49.09375 34.832031 -48.835938 33 -48.328125 C 31.164062 -47.828125 29.078125 -46.957031 26.734375 -45.71875 C 24.398438 -44.488281 22.316406 -42.703125 20.484375 -40.359375 C 18.648438 -38.023438 17.734375 -34.976562 17.734375 -31.21875 C 17.734375 -28.28125 18.878906 -25.710938 21.171875 -23.515625 C 23.460938 -21.316406 26.210938 -19.644531 29.421875 -18.5 C 32.628906 -17.351562 35.566406 -16.78125 38.234375 -16.78125 C 39.609375 -16.78125 41.28125 -17.097656 43.25 -17.734375 C 45.21875 -18.378906 47.140625 -19.296875 49.015625 -20.484375 C 50.898438 -21.679688 52.484375 -23.082031 53.765625 -24.6875 C 55.046875 -26.289062 55.6875 -28.097656 55.6875 -30.109375 C 55.6875 -30.753906 55.644531 -31.257812 55.5625 -31.625 Z M 55.5625 -31.625 "/></g></g></g><g fill="#ffffff" fill-opacity="1"><g transform="translate(275.021315, 96.540505)"><g/></g></g></g></g></g><g clip-path="url(#7987ecf183)"><g transform="matrix(1, 0, 0, 1, 239, 0)"><g clip-path="url(#b928fac023)"><g fill="#ffffff" fill-opacity="1"><g transform="translate(1.366013, 60.586357)"><g><path d="M 18.03125 -9.203125 C 18.03125 -7.296875 17.414062 -5.625 16.1875 -4.1875 C 14.96875 -2.75 13.585938 -2.03125 12.046875 -2.03125 C 10.640625 -2.03125 9.472656 -2.59375 8.546875 -3.71875 C 7.628906 -4.851562 7.171875 -6.3125 7.171875 -8.09375 C 7.171875 -9.875 7.460938 -11.128906 8.046875 -11.859375 C 8.628906 -12.597656 9.195312 -13.046875 9.75 -13.203125 C 10.300781 -13.359375 10.578125 -13.4375 10.578125 -13.4375 L 14.359375 -13.796875 L 15.359375 -12.796875 C 15.359375 -12.796875 15.585938 -12.6875 16.046875 -12.46875 C 16.515625 -12.25 16.960938 -11.894531 17.390625 -11.40625 C 17.816406 -10.914062 18.03125 -10.179688 18.03125 -9.203125 Z M 18.03125 -9.203125 "/></g></g></g><g fill="#ffffff" fill-opacity="1"><g transform="translate(12.403776, 60.586357)"><g><path d="M 18.03125 -9.203125 C 18.03125 -7.296875 17.414062 -5.625 16.1875 -4.1875 C 14.96875 -2.75 13.585938 -2.03125 12.046875 -2.03125 C 10.640625 -2.03125 9.472656 -2.59375 8.546875 -3.71875 C 7.628906 -4.851562 7.171875 -6.3125 7.171875 -8.09375 C 7.171875 -9.875 7.460938 -11.128906 8.046875 -11.859375 C 8.628906 -12.597656 9.195312 -13.046875 9.75 -13.203125 C 10.300781 -13.359375 10.578125 -13.4375 10.578125 -13.4375 L 14.359375 -13.796875 L 15.359375 -12.796875 C 15.359375 -12.796875 15.585938 -12.6875 16.046875 -12.46875 C 16.515625 -12.25 16.960938 -11.894531 17.390625 -11.40625 C 17.816406 -10.914062 18.03125 -10.179688 18.03125 -9.203125 Z M 18.03125 -9.203125 "/></g></g></g></g></g></g></g></g></svg>